<svg xmlns="http://www.w3.org/2000/svg" width="1400" height="420" viewBox="0 0 1400 420" fill="none">
  <defs>
    <linearGradient id="bg" x1="40" y1="20" x2="360" y2="390" gradientUnits="userSpaceOnUse">
      <stop stop-color="#B96CFF"/>
      <stop offset="0.48" stop-color="#8B4DFF"/>
      <stop offset="1" stop-color="#5E2BE8"/>
    </linearGradient>
    <linearGradient id="shine" x1="75" y1="60" x2="310" y2="330" gradientUnits="userSpaceOnUse">
      <stop stop-color="white" stop-opacity="0.34"/>
      <stop offset="0.62" stop-color="white" stop-opacity="0.06"/>
      <stop offset="1" stop-color="white" stop-opacity="0"/>
    </linearGradient>
    <linearGradient id="word" x1="470" y1="100" x2="1190" y2="325" gradientUnits="userSpaceOnUse">
      <stop stop-color="#A960FF"/>
      <stop offset="1" stop-color="#6F35F2"/>
    </linearGradient>
    <filter id="shadow" x="-40%" y="-40%" width="180%" height="200%">
      <feDropShadow dx="0" dy="20" stdDeviation="18" flood-color="#5F2AE8" flood-opacity="0.28"/>
    </filter>
  </defs>

  <!-- Icon -->
  <g filter="url(#shadow)">
    <path d="M200 34C105.6 34 32 104.8 32 192.2C32 279.7 105.6 350.4 200 350.4C224.8 350.4 248.4 345.5 269.8 336.6L350 392L334.6 302.9C357.3 274.4 368 237.8 368 192.2C368 104.8 294.4 34 200 34Z" fill="url(#bg)"/>
    <path d="M200 58C121.6 58 57 116.1 57 190.5C57 264.9 121.6 323 200 323C222.7 323 244.1 318.1 263.1 309.4L320.9 349.3L310.2 287.6C329.7 263.7 343 230 343 190.5C343 116.1 278.4 58 200 58Z" fill="url(#shine)"/>
  </g>

  <!-- Stylized Y -->
  <path d="M112 127C112 116.5 120.5 108 131 108H153.5C160.4 108 166.8 111.7 170.2 117.7L200 169.2L229.8 117.7C233.2 111.7 239.6 108 246.5 108H269C279.5 108 288 116.5 288 127C288 130.4 287.1 133.8 285.4 136.8L226 239.3V282C226 296.4 214.4 308 200 308C185.6 308 174 296.4 174 282V239.3L114.6 136.8C112.9 133.8 112 130.4 112 127Z" fill="white"/>

  <!-- Voice bars integrated on right -->
  <rect x="260" y="152" width="16" height="82" rx="8" fill="white" fill-opacity="0.96"/>
  <rect x="286" y="132" width="16" height="122" rx="8" fill="white" fill-opacity="0.84"/>
  <rect x="312" y="164" width="16" height="58" rx="8" fill="white" fill-opacity="0.72"/>

  <!-- Wordmark -->
  <text x="455" y="205"
        font-family="Inter, Arial, Helvetica, sans-serif"
        font-size="132"
        font-weight="800"
        letter-spacing="-5"
        fill="url(#word)">YO</text>

  <text x="670" y="205"
        font-family="Inter, Arial, Helvetica, sans-serif"
        font-size="132"
        font-weight="800"
        letter-spacing="-5"
        fill="#17131F">VOICE</text>

  <text x="462" y="282"
        font-family="Inter, Arial, Helvetica, sans-serif"
        font-size="34"
        font-weight="600"
        letter-spacing="7"
        fill="#7D6E97">SPEAK. CONNECT. BE HEARD.</text>
</svg>
